# xmcd
#
# Track frame offsets: 
#        150
#        35244
#        57285
#        82414
#        110586
#        135609
#        167036
#        194247
#
# Disc length: 3133 seconds
#
# Revision: 2
# Processed by: cddbd v1.5.2PL0 Copyright (c) Steve Scherf et al.
# Submitted via: ExactAudioCopy v0.95a4
#
DISCID=7d0c3b08
DTITLE=3rd World Electric - Kilimanjaro Secret Brew
DYEAR=2009
DGENRE=Progressive Rock
TTITLE0=Waterfront Migration
TTITLE1=Ode to Joe
TTITLE2=CapeTown Traffic
TTITLE3=Downbeat Dakar
TTITLE4=The Lava Juggler
TTITLE5=Kilimanjaro Secret Brew
TTITLE6=Tin Can Robots
TTITLE7=Children of the Future
EXTD=YEAR: 2009
EXTT0=
EXTT1=
EXTT2=
EXTT3=
EXTT4=
EXTT5=
EXTT6=
EXTT7=
PLAYORDER=
